<?xml version="1.0" encoding="UTF-8" standalone="no"?>
<!DOCTYPE svg PUBLIC "-//W3C//DTD SVG 1.1//EN" "http://www.w3.org/Graphics/SVG/1.1/DTD/svg11.dtd">
<svg width="100%" height="100%" viewBox="0 0 1024 1024" version="1.1" xmlns="http://www.w3.org/2000/svg" xmlns:xlink="http://www.w3.org/1999/xlink" xml:space="preserve" xmlns:serif="http://www.serif.com/" style="fill-rule:evenodd;clip-rule:evenodd;stroke-linecap:round;stroke-linejoin:round;stroke-miterlimit:1.5;">
    <g transform="matrix(0.975238,0,0,0.996109,0,0.996109)">
        <rect x="0" y="-1" width="1050" height="1028" style="fill:url(#_Radial1);"/>
    </g>
    <g transform="matrix(0.848727,0,0,0.868619,69.896229,65.626507)">
        <g transform="matrix(1,0,-0,1,-168,-141)">
            <g>
                <path d="M334.621,352.571C334.286,358.086 334.115,363.711 334.107,369.435C329.582,371.327 325.159,373.294 320.841,375.333C320.699,367.318 320.857,359.477 321.314,351.84C321.725,344.975 322.377,338.273 323.27,331.758C329.868,283.642 349.647,245.517 381.88,224.99C412.171,205.7 449.422,204.372 488.415,218.442C491.246,219.464 494.087,220.567 496.934,221.75C500.936,223.412 504.952,225.234 508.978,227.213C504.202,229.699 499.414,232.381 494.622,235.253C493.687,234.848 492.753,234.451 491.819,234.063C485.796,231.561 479.809,229.442 473.881,227.724C442.83,218.724 413.409,220.72 389.042,236.236C359.767,254.879 342.472,289.869 336.48,333.569C335.634,339.738 335.015,346.078 334.621,352.571Z" style="fill:rgb(26,0,255);"/>
                <path d="M616.493,317.243C635.392,340.415 653.088,366.841 668.767,396.048C715.261,482.658 733.499,574.074 723.901,644.07C717.304,692.186 697.525,730.311 665.291,750.838C632.801,771.528 592.304,771.554 550.237,754.078C524.124,743.23 497.353,725.572 471.616,702.085C465.577,696.573 459.594,690.741 453.69,684.6C460.625,685.494 467.649,686.248 474.751,686.855C479.104,691.01 483.491,694.989 487.905,698.79C510.097,717.897 532.949,732.458 555.353,741.765C592.924,757.373 629.111,758.071 658.13,739.591C687.405,720.949 704.7,685.959 710.692,642.259C719.978,574.533 702.005,486.155 657.019,402.354C641.002,372.518 622.846,345.648 603.454,322.32C608.344,320.347 612.67,318.672 616.493,317.243Z" style="fill:rgb(26,0,255);"/>
                <path d="M346.598,508.199C341.933,495.097 337.902,482.048 334.504,469.141C337.21,462.283 340.108,455.411 343.194,448.54C346.786,464.8 351.44,481.371 357.157,498.057C365.755,523.158 376.756,548.519 390.152,573.474C403.31,597.984 417.911,620.492 433.456,640.679C439.408,648.41 445.499,655.8 451.7,662.832C444.863,661.884 438.121,660.794 431.483,659.568C426.958,654.052 422.501,648.349 418.123,642.467C403.924,623.389 390.558,602.42 378.405,579.78C365.693,556.1 355.094,532.062 346.598,508.199Z" style="fill:rgb(26,0,255);"/>
                <path d="M323.298,410.808C322.807,406.66 322.388,402.543 322.041,398.462C326.213,396.324 330.502,394.261 334.903,392.277C335.105,395.174 335.346,398.091 335.625,401.026C335.99,404.861 336.42,408.727 336.916,412.621C333.308,419.557 329.885,426.514 326.648,433.477C325.297,425.831 324.181,418.268 323.298,410.808Z" style="fill:rgb(26,0,255);"/>
                <g transform="matrix(1.232807,-0.785069,0.461184,0.859101,-416.823017,520.280541)">
                    <g transform="matrix(0.712247,0.65087,-0.373594,0.998667,451.342563,-116.98064)">
                        <path d="M435.728,180.059L392.955,168.894L409.686,209.812L435.728,180.059Z" style="fill:rgb(26,0,255);"/>
                        <path d="M416.757,189.727C428.978,201.631 440.884,215.154 452.211,230.134" style="fill:none;stroke:rgb(26,0,255);stroke-width:13.18px;"/>
                    </g>
                </g>
            </g>
            <g>
                <path d="M717.586,411.572C714.718,409.712 711.779,407.889 708.771,406.104C709.481,401.285 710.088,396.508 710.592,391.78C714.193,393.817 717.705,395.905 721.127,398.041C730.522,403.907 739.227,410.137 747.166,416.685C782.95,446.2 803.322,482.22 802.406,520.422C801.509,557.813 780.344,592.138 744.605,619.613C743.83,620.21 743.047,620.803 742.258,621.392C738.161,624.454 733.878,627.428 729.42,630.31C729.864,624.853 730.154,619.285 730.288,613.619C731.637,612.66 732.967,611.69 734.277,610.711C736.711,608.892 739.077,607.041 741.372,605.158C770.632,581.144 788.311,552.02 789.076,520.102C789.901,485.683 770.924,453.564 738.682,426.972C732.171,421.602 725.124,416.459 717.586,411.572Z" style="fill:rgb(0,255,15);"/>
                <path d="M625.103,672.738C588.612,681.282 548.289,685.57 505.983,684.556C409.675,682.247 324.95,652.985 273.006,610.142C237.221,580.628 216.85,544.608 217.766,506.406C218.682,468.204 240.756,433.202 277.914,405.436C297.027,391.153 320.171,378.772 346.373,368.84C353.098,366.291 360.024,363.904 367.135,361.687C363.224,367.512 359.39,373.476 355.643,379.573C351.964,380.909 348.345,382.294 344.789,383.727C322.433,392.739 302.568,403.657 285.895,416.116C252.416,441.133 231.921,472.306 231.096,506.725C230.27,541.145 249.248,573.264 281.49,599.856C331.585,641.174 413.422,668.999 506.303,671.226C547.415,672.212 586.607,668.084 622.034,659.805C622.664,662.837 623.616,667.008 625.103,672.738Z" style="fill:rgb(0,255,15);"/>
                <path d="M431.543,360.635C416.291,362.933 401.566,365.964 387.494,369.664C391.366,364.007 395.313,358.489 399.326,353.116C412.357,350.207 425.86,347.837 439.753,346.052C463.559,342.995 488.508,341.657 514.189,342.272C540.821,342.911 566.568,345.61 590.98,350.088C602.717,352.241 614.145,354.805 625.216,357.748C629.011,363.274 632.734,368.946 636.376,374.757C624.526,371.131 612.191,367.967 599.445,365.307C572.525,359.688 543.769,356.319 513.869,355.602C485.293,354.917 457.644,356.702 431.543,360.635Z" style="fill:rgb(0,255,15);"/>
                <path d="M683.345,392.696C678.287,390.329 673.088,388.057 667.758,385.887C664.268,379.653 660.686,373.551 657.022,367.587C665.157,370.478 673.038,373.586 680.642,376.896C683.875,378.304 687.058,379.748 690.189,381.227C689.822,385.863 689.346,390.554 688.76,395.294C686.974,394.416 685.168,393.55 683.345,392.696Z" style="fill:rgb(0,255,15);"/>
                <g transform="matrix(-0.034895,1.455548,0.953773,0.022866,61.510832,-340.586941)">
                    <g transform="matrix(-0.019395,1.234631,0.790486,0.028921,278.398718,35.490409)">
                        <path d="M463.339,500.309L507.28,505.149L477.044,537.398L463.339,500.309Z" style="fill:rgb(0,255,15);"/>
                        <path d="M426.874,527.666C444.7,524.955 461.699,521.056 477.609,516.112" style="fill:none;stroke:rgb(0,255,15);stroke-width:13.18px;"/>
                    </g>
                </g>
            </g>
            <g>
                <path d="M295.041,661.052C292.419,650.481 290.614,639.245 289.628,627.455C294.235,630.541 299.024,633.537 303.986,636.437C305.359,647.038 307.471,657.099 310.34,666.501C317.972,691.51 330.957,711.86 349.624,725.335C377.518,745.472 413.684,746.882 452.1,733.486C457.795,731.501 463.536,729.193 469.306,726.572C474.486,724.219 479.691,721.613 484.906,718.763C488.706,721.834 492.52,724.779 496.344,727.595C489.637,731.458 482.942,734.939 476.285,738.026C469.64,741.107 463.034,743.794 456.49,746.076C413.478,761.074 373.051,758.692 341.82,736.146C318.685,719.445 303.053,693.354 295.041,661.052Z" style="fill:rgb(255,20,0);"/>
                <path d="M300.974,516.107C312.402,472.103 331.798,426.029 358.997,381.755C410.559,297.825 478.476,239.443 540.682,217.752C583.694,202.754 624.121,205.136 655.352,227.682C686.337,250.05 703.864,289.261 707.649,337.68C709.65,363.261 707.82,391.45 702.214,420.99C700.648,429.239 698.788,437.593 696.635,446.025C693.855,439.151 690.903,432.275 687.777,425.41C689.287,418.175 690.565,411.017 691.61,403.955C695.012,380.967 695.943,359 694.357,338.719C690.918,294.745 675.689,258.808 647.548,238.493C619.654,218.356 583.487,216.946 545.072,230.342C485.136,251.241 420.038,307.867 370.358,388.734C343.255,432.852 324.065,478.79 313.064,522.487C309.788,520.397 305.773,518.181 300.974,516.107Z" style="fill:rgb(255,20,0);"/>
                <path d="M534.945,701.2C528.586,706.244 522.192,710.964 515.787,715.346C511.966,712.713 508.152,709.94 504.351,707.03C508.314,704.413 512.275,701.66 516.227,698.774C520.655,695.54 525.073,692.139 529.471,688.576C536.75,688.414 543.958,688.095 551.086,687.627C545.74,692.382 540.355,696.909 534.945,701.2Z" style="fill:rgb(255,20,0);"/>
                <path d="M582.422,656.588C580.15,659.082 577.864,661.533 575.567,663.942C568.754,664.772 561.846,665.456 554.851,665.989C558.139,662.791 561.407,659.503 564.652,656.127C586.845,633.034 607.942,605.813 626.814,575.094C644.913,545.633 659.483,515.361 670.442,485.486C673.628,476.801 676.509,468.15 679.082,459.562C681.74,466.356 684.221,473.143 686.526,479.91C683.755,488.037 680.723,496.202 677.431,504.381C666.965,530.382 653.869,556.527 638.175,582.073C621.115,609.843 602.264,634.816 582.422,656.588Z" style="fill:rgb(255,20,0);"/>
                <g transform="matrix(-1.185031,-0.855482,-0.510398,0.830806,1435.579377,568.896456)">
                    <g transform="matrix(-0.68879,-0.709247,-0.413461,0.959964,969.972205,392.804194)">
                        <path d="M204.615,407.083L179.293,443.319L165.498,401.32L204.615,407.083Z" style="fill:rgb(255,20,0);"/>
                        <path d="M198.001,360.377C191.92,377.872 187.215,395.193 183.904,412.025" style="fill:none;stroke:rgb(255,20,0);stroke-width:13.18px;"/>
                    </g>
                </g>
            </g>
        </g>
        <g transform="matrix(0.856366,0,0,0.889405,142.709107,79.506863)">
            <path d="M388.565,409.72C389.687,400.693 393.648,387.158 397.225,383.841C397.44,383.641 403.215,372.486 424.111,365.548C451.431,356.477 503.021,367.333 499.866,411.932C499.604,415.64 502.136,413.378 528.614,416.105C535.114,416.774 526.907,414.094 514.592,400.396C495.207,378.832 499.579,361.287 500.447,357.803C501.358,354.148 495.839,353.584 481.368,339.432C472.216,330.481 458.269,321.4 467.49,301.544C471.302,293.335 494.802,283.101 509.625,304.131C525.582,326.77 521.11,332.744 526.639,331.384C549.877,325.665 553.727,339.074 558.055,332.97C579.214,303.128 605.906,281.403 623.904,274.031C629.234,271.847 623.379,270.757 613.003,258.025C597.29,238.743 591.072,204.546 635.987,213.864C642.298,215.174 636.479,202.032 666.042,183.146C677.753,175.664 715.129,161.352 743.415,186.901C745.873,189.121 746.125,191.026 748.507,188.678C751.145,186.077 764.436,171.697 777.107,158.956C782.328,153.707 771.633,151.495 767.439,130.421C757.734,81.65 825.494,45.642 876.55,88.554C879.042,90.871 894.222,104.983 895.958,126.397C896.062,127.678 893.195,136.59 897.469,155.985C901.862,175.926 906.784,173.015 914.353,179.712C925.404,189.489 923.274,204.982 904.269,210.527C892.895,213.846 891.136,213.909 887.218,221.779C879.483,237.315 859.644,240.521 849.005,237.695C842.345,235.926 842.641,238.41 836.504,244.966C833.587,248.083 800.08,283.882 800.082,283.976C800.177,287.654 809.286,275.583 837.708,271.925C896.962,264.299 947.828,312.388 929.488,360.64C915.541,397.337 865.888,414.112 824.521,400.25C820.601,398.937 820.415,397.796 818.889,399.186C816.67,401.207 805.657,448.246 765.805,483.301C763.98,484.906 758.361,488.173 762.101,489.256C765.894,490.354 766.053,489.462 810.017,501.105C817.767,503.158 842.581,516.371 855.701,536.058C881.02,574.054 870.001,599.422 860.419,642.254C843.952,715.865 845.044,716.574 841.991,719.249C833.663,726.545 835.821,794.431 892.159,820.822C911.783,830.015 919.276,825.734 940.81,838.132C1027.629,888.12 999.135,960.986 914.424,964.312C903.451,964.742 906.615,959.775 907.192,959.379C910.75,956.933 957.941,959.515 979.571,930.545C1004.125,897.66 965.777,852.957 921.643,835.549C910.743,831.25 887.769,835.357 856.532,801.485C844.968,788.945 828.058,757.267 832.976,725.16C833.453,722.042 834.658,720.237 831.525,720.755C824.982,721.836 823.675,721.01 821.47,727.208C818.999,734.154 790.798,813.433 790.844,814.123C791.028,816.821 823.135,809.501 832.756,831.457C836.272,839.481 832.622,843.94 836.656,843.742C841.294,843.515 860.381,837.814 860.488,859.183C860.591,879.811 834.268,916.973 810.31,932.152C804.988,935.525 817.547,934.207 835.494,939.503C861.638,947.218 862.574,960.003 847.999,965.811C814.571,979.133 741.721,969.324 731.578,954.109C729.187,950.521 729.322,949.952 725.082,949.582C682.304,945.843 664.286,928.328 681.306,918.909C686.091,916.262 682.325,914.77 682.497,909.336C682.727,902.048 693.953,883.666 692.179,879.722C679.381,851.26 733.752,847.908 735.231,846.734C738.41,844.209 735.224,839.627 747.284,830.09C750.296,827.708 761.979,789.257 779.761,737.543C779.851,737.282 783.842,728.457 781.582,727.731C780.771,727.47 740.515,730.236 744.302,711.749C745.022,708.232 750.106,701.583 747.595,701.813C740.374,702.476 740.507,702.953 733.262,703.411C728.099,703.737 737.801,720.365 712.744,725.746C695.98,729.346 681.806,721.864 679.276,725.258C676.046,729.594 676.933,730.201 640.596,780.689C638.222,783.987 638.977,784.463 611.875,822.587C607.079,829.333 620.548,825.982 625.449,835.836C628.276,841.52 624.07,847.499 619.446,850.648C616.781,852.463 614.565,852.563 616.867,854.849C617.001,854.982 625.013,861.13 627.94,870.415C630.389,878.184 627.111,885.049 624.674,887.722C622.674,889.915 620.454,890.172 623.482,894.175C626.876,898.661 624.577,906.676 618.326,910.883C601.709,922.068 560.798,924.111 557.991,905.31C557.389,901.28 556.233,907.02 546.914,910.012C504.227,923.719 411.964,901.574 431.617,879.862C433.346,877.952 435.786,877.13 435.515,875.547C435.016,872.628 431.959,854.754 440.99,838.94C447.025,828.372 463.035,819.075 476.3,823.71C480.314,825.113 485.785,827.024 527.542,837.833C532.466,839.108 534.409,841.612 535.691,836.64C538.482,825.819 555.589,816.199 572.644,819.087C576.458,819.732 577.231,821.208 579.404,817.981C590.882,800.94 613.705,764.833 645.975,716.698C646.333,716.164 650.114,710.523 650.042,709.77C649.833,707.603 630.082,692.41 635.27,686.408C647.997,671.683 652.203,669.187 649.862,666.383C627.271,639.327 619.7,625.29 624.818,568.52C625.07,565.726 613.751,551.702 606.749,521.357C603.332,506.55 606.084,501.472 601.373,503.368C591.387,507.386 411.435,537.993 408.41,538.461C362.885,545.865 342.826,546.789 323.703,553.128C311.663,557.119 312.692,567.657 293.672,576.497C282.175,582.557 261.388,587.617 241.7,587.013C224.424,586.483 211.533,577.559 202.27,566.905C193.006,556.251 184.683,541.017 186.119,523.088C189.627,479.307 217.326,471.231 238.701,469.923C257.497,468.772 283.635,476.872 298.268,488.352C301.311,490.739 313.14,482.437 317.238,494.729C319.693,502.092 320.99,524.785 326.816,523.868C360.681,518.517 384.202,514.563 394.66,512.573C406.735,510.536 412.611,509.341 414.428,509.044C435.51,505.257 435.157,504.769 475.31,498.432C483.18,497.191 567.885,483.824 573.601,482.438C578.502,481.25 569.602,473.809 575.292,449.721C576.094,446.326 569.676,447.132 563.403,446.716C535.921,444.892 505.029,443.932 499.95,443.774C496.028,443.652 491.989,461.192 473.078,471.853C459.698,479.397 447.288,479.614 446.742,479.684C426.209,480.278 415.785,474.607 410.704,471.357C403.677,466.155 392.502,452.736 389.898,442.794C386.317,429.122 387.344,419.546 388.565,409.72Z" style="fill:rgb(3,3,3);"/>
            <g transform="matrix(1.023438,0,0,1.023438,0,0)">
                <path d="M636.572,555.591C697.091,509.634 764.28,494.614 789.514,496.336C812.811,497.926 832.155,523.13 839.171,537.665C851.747,563.721 847.632,577.044 838.38,618.472C821.343,694.753 821.987,695.34 819.468,697.463C814.781,701.415 744.673,713.806 732.779,701.246C724.885,692.91 754.343,674.877 736.384,680.111C696.92,691.612 657.267,667.592 640.951,651.042C607.158,616.765 613.385,584.148 613.679,579.517C614.027,574.025 631.146,559.831 636.572,555.591Z" style="fill:rgb(254,254,254);"/>
            </g>
            <g transform="matrix(1.023438,0,0,1.023438,0,0)">
                <path d="M676.647,457.057C676.268,454.895 676.891,455.048 678.283,453.348C707.454,417.723 715.018,380.355 705.67,388.721C682.414,409.532 675.364,407.128 666.169,414.087C662.754,416.671 635.99,426.295 623.53,425.195C597.07,422.859 560.25,423.85 549.421,418.671C543.335,415.761 543.603,415.471 537.593,412.316C493.574,389.206 490.634,361.466 492.299,353.445C493.437,347.959 501.6,357.409 509.479,357.728C528.367,358.493 516.408,333.364 515.277,330.576C512.971,324.89 531.755,324.455 546.29,333.835C561.273,343.503 560.024,344.881 571.675,358.345C574.204,361.267 576.816,358.576 575.007,355.8C569.621,347.538 561.694,342.42 563.724,339.66C565.562,337.161 581.453,315.558 575.225,302.622C573.682,299.419 574.228,299.168 576.44,296.451C585.189,285.703 613.04,267.723 618.615,270.291C623.384,272.487 615.503,277.362 615.37,278.484C614.667,284.387 624.753,275.255 639.53,269.577C705.246,244.326 741.054,294.041 701.979,345.868C691.92,359.21 689.975,356.987 675.821,365.977C675.172,366.39 664.659,373.068 670.389,373.921C672.497,374.234 672.293,373.411 677.72,369.825C701.485,354.119 724.099,351.435 728.482,351.205C801.44,347.382 799.148,421.615 746.173,468.135C738.923,474.502 738.793,477.063 729.654,474.079C726.949,473.196 729.383,467.031 723.158,460.843C708.797,446.562 685.522,455.435 676.647,457.057Z" style="fill:rgb(253,253,253);"/>
            </g>
            <g transform="matrix(1.023438,0,0,1.023438,0,0)">
                <path d="M854.231,185.543C854.665,194.611 852.05,193.846 845.096,202.122C844.927,202.324 840.274,207.19 833.571,214.564C831.063,217.324 831.635,217.765 824.45,225.453C766.254,287.721 763.786,290.976 759.098,297.162C754.257,303.548 754.177,295.891 742.822,287.092C717.057,267.129 688.706,258.027 681.503,258.059C677.618,258.076 677.976,256.905 675.491,251.504C674.518,249.391 675.315,249.103 695.856,227.851C701.058,222.47 701.491,222.937 705.776,216.724C709.41,211.457 707.115,225.516 722.504,226.297C746.265,227.503 781.625,185.033 778.303,180.626C776.328,178.006 750.75,170.369 752.995,167.813C755.565,164.887 755.689,165.035 786.802,132.799C786.84,132.76 791.74,120.076 824.199,144.887C849.451,164.189 853.347,181.597 854.231,185.543Z" style="fill:rgb(254,254,254);"/>
            </g>
            <g transform="matrix(1.023438,0,0,1.023438,0,0)">
                <path d="M556.285,814.364C554.516,816.731 554.11,816.167 551.672,817.796C542.999,823.593 568.338,830.057 582.553,826.728C590.487,824.87 586.571,820.848 587.772,818.639C592.558,809.84 594.888,809.536 603.375,814.704C613.204,820.688 605.243,830.227 585.538,834.672C585.015,834.79 575.253,836.992 580.631,839.241C584.009,840.654 595.44,834.852 598.166,836.953C614.822,849.792 620.64,875.544 568.493,876.376C556.1,876.574 538.302,881.543 479.499,870.505C459.595,866.768 438.498,860.404 434.411,857.635C431.866,855.909 426.934,854.142 429.941,836.585C431.911,825.078 440.595,803.243 464.461,809.651C480.397,813.931 480.387,813.654 496.382,817.95C516.188,823.271 516.123,823.342 522.489,824.542C523.484,824.729 528.823,835.468 542.508,835.712C545.746,835.77 546.554,832.153 542.492,831.547C511.702,826.951 532.83,800.283 559.479,804.593C562.721,805.117 561.394,806.879 556.285,814.364Z" style="fill:rgb(253,253,253);"/>
            </g>
            <g transform="matrix(1.023438,0,0,1.023438,0,0)">
                <path d="M804.533,894.536C787.336,908.848 783.416,907.458 725.533,919.662C716.921,921.478 716.581,921.219 716.392,920.509C716.105,919.429 717.598,920.05 723.929,908.738C753.885,855.218 752.906,854.464 756.908,850.955C783.419,827.702 836.517,836.409 836.361,841.509C835.679,863.901 808.06,891.067 804.533,894.536Z" style="fill:rgb(253,253,253);"/>
            </g>
            <g transform="matrix(1.023438,0,0,1.023438,0,0)">
                <path d="M723.877,847.492C722.66,827.098 722.365,826.488 727.973,818.876C731.448,814.16 746.225,807.101 759.54,803.66C813.677,789.67 812.462,823.973 810.272,825.057C809.634,825.373 768.498,829.562 765.51,829.685C747.35,830.429 746.062,842.054 738.38,856.435C722.841,885.523 717.599,898.127 713.223,905.318C709.407,911.59 711.561,912.045 711.654,921.518C711.692,925.442 708.103,921.802 706.293,920.94C703.594,919.655 683.754,910.206 675.883,899.211C668.932,889.5 670.991,888.137 679.439,866.471C679.529,866.242 680.338,864.167 682.408,865.638C693.931,873.824 707.749,876.569 709.259,875.236C713.486,871.505 697.292,870.31 687.705,864.174C655.494,843.555 717.174,827.845 718.369,833.536C719.485,838.858 715.929,837.762 714.549,837.932C699.361,839.801 695.884,854.484 718.593,860.065C727.553,862.267 724.819,856.7 723.877,847.492Z" style="fill:rgb(252,252,252);"/>
            </g>
            <g transform="matrix(1.023438,0,0,1.023438,0,0)">
                <path d="M599.32,213.107C618.311,205.183 646.554,225.786 656.42,234.59C664.892,242.151 677.137,258.393 671.533,258.744C648.854,260.167 643.992,262.973 626.606,270.768C623.414,272.199 623.49,267.345 620.393,265.681C603.546,256.633 579.483,224.368 599.32,213.107Z" style="fill:rgb(253,253,253);"/>
            </g>
            <g transform="matrix(1.023438,0,0,1.023438,0,0)">
                <path d="M593.491,427.679C614.78,428.225 615.128,428.197 616.144,429.706C618.517,433.228 610.571,450.492 610.89,451.31C613.435,457.831 616.326,439.247 649.456,434.213C668.95,431.25 683.942,438.633 680.036,444.156C679.222,445.308 671.672,455.983 668.49,457.481C666.682,458.333 619.373,463.689 601.551,465.91C585.991,467.849 584.165,469.165 582.796,464.41C578.723,450.256 583.014,438.692 583.788,436.605C587.923,425.462 592.193,427.721 593.491,427.679Z" style="fill:rgb(252,252,252);"/>
            </g>
            <g transform="matrix(1.023438,0,0,1.023438,0,0)">
                <path d="M722.504,590.351C680.533,585.5 687.4,540.73 717.568,535.941C755.551,529.912 768.983,587.378 722.504,590.351Z" style="fill:rgb(14,14,14);"/>
            </g>
            <g transform="matrix(1.023438,0,0,1.023438,0,0)">
                <path d="M684.564,682.303C695.609,685.443 695.531,685.54 707.445,686.991C708.149,687.077 712.638,687.624 709.686,695.57C703.183,713.071 654.847,706.667 636.09,686.976C634.962,685.79 631.81,684.375 627.086,677.792C622.491,671.387 626.667,670.843 634.059,662.113C637.828,657.661 638.261,654.504 642.626,658.356C661.947,675.405 682.564,681.563 684.564,682.303Z" style="fill:rgb(252,252,252);"/>
            </g>
            <g transform="matrix(1.023438,0,0,1.023438,0,0)">
                <path d="M743.252,549.699C764.896,582.411 708.408,601.867 698.291,568.563C692.402,549.177 719.509,525.577 743.252,549.699Z" style="fill:rgb(253,253,253);"/>
            </g>
            <g transform="matrix(1.023438,0,0,1.023438,0,0)">
                <path d="M636.55,592.549C665.703,568.179 686.866,600.739 670.336,620.37C649.152,645.528 611.377,622.091 636.55,592.549Z" style="fill:rgb(12,12,12);"/>
            </g>
            <g transform="matrix(1.023438,0,0,1.023438,0,0)">
                <path d="M754.438,174.653C770.285,181.406 774.034,182.306 772.105,185.255C759.32,204.803 729.918,228.979 715.804,220.047C714.668,219.328 709.751,212.674 712.638,209.62C713.842,208.346 713.965,208.494 727.92,193.913C728.233,193.585 728.238,193.603 731.878,189.856C748.593,172.645 748.918,172.402 750.361,172.947C751.739,173.469 753.06,174.132 754.438,174.653Z" style="fill:rgb(252,252,252);"/>
            </g>
            <g transform="matrix(1.023438,0,0,1.023438,0,0)">
                <path d="M594.803,317.747C595.839,316.61 604.485,307.12 610.514,306.672C614.592,306.369 616.995,309.43 617.604,311.461C623.743,331.935 587.778,378.076 580.277,358.588C574.762,344.258 592.712,320.513 594.803,317.747Z" style="fill:rgb(2,2,2);"/>
            </g>
            <g transform="matrix(1.023438,0,0,1.023438,0,0)">
                <path d="M502.501,889.041C496.758,888.788 476.62,890.182 439.432,877.695C422.148,871.892 420.778,862.789 428.414,860.233C430.085,859.673 441.105,867.202 475.592,874.006C522.39,883.238 537.758,880.278 536.794,882.522C534.354,888.204 505.293,888.967 502.501,889.041Z" style="fill:rgb(250,250,250);"/>
            </g>
            <g transform="matrix(1.023438,0,0,1.023438,0,0)">
                <path d="M639.571,595.571C662.328,576.382 677.892,598.774 669.68,613.593C654.799,640.445 616.775,622.1 639.571,595.571Z" style="fill:rgb(252,252,252);"/>
            </g>
            <g transform="matrix(1.023438,0,0,1.023438,0,0)">
                <path d="M568.464,893.863C566.73,893.665 548.901,891.623 549.28,883.484C549.349,882.004 549.639,880.697 567.486,880.145C592.336,879.377 595.557,875.728 601.607,873.977C603.999,873.285 607.547,877.004 606.187,880.385C600.484,894.568 571.668,893.934 568.464,893.863Z" style="fill:rgb(250,250,250);"/>
            </g>
            <g transform="matrix(1.023438,0,0,1.023438,0,0)">
                <path d="M727.431,887.466C729.67,882.2 732.18,877.42 732.629,876.565C746.361,850.413 750.479,833.625 764.499,833.368C781.628,833.054 781.433,831.493 797.531,829.839C799.846,829.602 821.817,827.345 826.504,827.288C832.202,827.219 835.627,832.266 835.741,833.481C836.082,837.125 833.939,834.785 830.402,833.928C810.399,829.077 767.782,831.526 751.929,849.902C748.226,854.195 717.938,912.636 716.472,913.442C711.766,916.029 718.93,903.324 727.431,887.466Z" style="fill:rgb(235,235,235);"/>
            </g>
            <g transform="matrix(1.023438,0,0,1.023438,0,0)">
                <path d="M573.482,469.355C571.199,469.506 566.666,472.695 565.43,464.512C564.994,461.629 561.847,440.8 571.638,428.604C573.556,426.215 578.782,426.853 581.579,427.172C588.689,427.982 570.879,433.838 578.997,466.407C579.964,470.285 577.446,468.716 573.482,469.355Z" style="fill:rgb(249,249,249);"/>
            </g>
            <g transform="matrix(1.023438,0,0,1.023438,0,0)">
                <path d="M700.387,377.367C700.002,377.723 693.395,383.839 693.94,378.551C694.783,370.36 728.398,354.271 750.11,375.877C750.344,376.11 753.031,383.004 746.119,377.987C725.845,363.271 712.022,368.433 700.387,377.367Z" style="fill:rgb(15,15,15);"/>
            </g>
            <g transform="matrix(1.023438,0,0,1.023438,0,0)">
                <path d="M675.577,905.426C677.58,907.282 683.269,913.909 695.964,920.179C713.256,928.72 643.18,910.412 669.564,900.717C671.51,900.001 673.735,903.274 675.577,905.426Z" style="fill:rgb(244,244,244);"/>
            </g>
        </g>
    </g>
    <defs>
        <radialGradient id="_Radial1" cx="0" cy="0" r="1" gradientUnits="userSpaceOnUse" gradientTransform="matrix(485.009766,-393.53125,401.953125,474.847656,541.40625,452.765625)"><stop offset="0" style="stop-color:rgb(255,195,0);stop-opacity:1"/><stop offset="0.55" style="stop-color:rgb(255,168,0);stop-opacity:1"/><stop offset="1" style="stop-color:rgb(255,67,0);stop-opacity:1"/></radialGradient>
    </defs>
</svg>
